<?xml version="1.0" encoding="UTF-8" standalone="no"?>
<!-- Created with Inkscape (http://www.inkscape.org/) -->

<svg
   width="347.81235"
   height="157.89952"
   viewBox="0 0 347.81235 157.89952"
   version="1.1"
   id="svg5"
   inkscape:version="1.1.2 (b8e25be833, 2022-02-05)"
   sodipodi:docname="cls.svg"
   xmlns:inkscape="http://www.inkscape.org/namespaces/inkscape"
   xmlns:sodipodi="http://sodipodi.sourceforge.net/DTD/sodipodi-0.dtd"
   xmlns="http://www.w3.org/2000/svg"
   xmlns:svg="http://www.w3.org/2000/svg">
  <sodipodi:namedview
     id="namedview7"
     pagecolor="#ffffff"
     bordercolor="#666666"
     borderopacity="1.0"
     inkscape:pageshadow="2"
     inkscape:pageopacity="0.0"
     inkscape:pagecheckerboard="0"
     inkscape:document-units="px"
     showgrid="false"
     inkscape:snap-page="true"
     fit-margin-top="0"
     fit-margin-left="0"
     fit-margin-right="0"
     fit-margin-bottom="0"
     inkscape:zoom="0.85839035"
     inkscape:cx="210.27729"
     inkscape:cy="104.8474"
     inkscape:window-width="1280"
     inkscape:window-height="953"
     inkscape:window-x="-8"
     inkscape:window-y="-8"
     inkscape:window-maximized="1"
     inkscape:current-layer="layer1" />
  <defs
     id="defs2" />
  <g
     inkscape:label="Layer 1"
     inkscape:groupmode="layer"
     id="layer1"
     transform="translate(-73.968329,-163.57743)">
    <g
       aria-label="CLS


"
       id="text495"
       style="font-weight:bold;font-size:253.333px;line-height:1.25;font-family:Candara;-inkscape-font-specification:'Candara Bold';fill:#6600ff"
       transform="translate(-3.4949135,3.4949135)">
      <g
         id="g17314"
         transform="translate(39.609019,-6.9898269)"
         style="fill:#6600ff">
        <path
           d="m 145.71866,177.33925 q 2.35026,-3.21614 5.07161,-4.82421 2.84505,-1.60807 6.06119,-1.60807 5.5664,0 9.02993,3.83463 3.58724,3.83463 3.58724,12.98826 v 21.52341 q 0,9.15364 -3.58724,13.11196 -3.46353,3.83463 -9.02993,3.83463 -5.07161,0 -8.16405,-2.84504 -3.09245,-2.84505 -4.57682,-10.63801 -0.86588,-5.19531 -3.46354,-8.04035 -5.0716,-5.5664 -14.22524,-8.90624 -9.02993,-3.33984 -18.18357,-3.33984 -11.38019,0 -20.904917,4.94791 -9.524727,4.94791 -16.822894,16.08071 -7.298167,11.13279 -7.298167,26.47132 v 16.4518 q 0,18.30726 13.235659,30.55334 13.359357,12.24608 36.985629,12.24608 14.10154,0 23.87366,-3.83463 5.6901,-2.22656 12.12238,-8.78254 3.95833,-3.95833 6.18489,-5.07161 2.22656,-1.23698 5.07161,-1.23698 5.07161,0 8.90624,3.83463 3.83463,3.83463 3.83463,9.02994 0,5.1953 -5.19531,11.1328 -7.54556,8.65884 -19.42055,13.60675 -15.95701,6.67968 -35.25385,6.67968 -22.512995,0 -40.572866,-9.27733 Q 58.388049,307.84038 48.121136,291.88337 37.854223,275.80266 37.854223,256.87691 v -17.19399 q 0,-19.79164 9.153633,-36.86193 9.277332,-17.19399 25.605435,-26.47132 16.328103,-9.27733 34.635369,-9.27733 11.0091,0 20.53383,2.59765 9.64842,2.47396 17.93617,7.66926 z"
           style="font-family:monospace;-inkscape-font-specification:'monospace Bold';fill:#6600ff"
           id="path17029" />
        <path
           d="m 207.78919,196.26501 v 99.20559 h 54.67441 v -23.99736 q 0,-9.15363 3.46354,-12.98826 3.58723,-3.95833 9.27733,-3.95833 5.5664,0 9.02993,3.95833 3.58724,3.83463 3.58724,12.98826 v 49.3554 H 167.71112 q -9.15363,0 -13.11196,-3.46353 -3.83463,-3.58724 -3.83463,-9.27733 0,-5.5664 3.83463,-9.02994 3.95833,-3.58724 13.11196,-3.58724 h 14.72003 v -99.20559 h -14.72003 q -9.15363,0 -13.11196,-3.46354 -3.83463,-3.58723 -3.83463,-9.27733 0,-5.6901 3.83463,-9.15363 3.95833,-3.58724 13.11196,-3.58724 l 54.9218,0.1237 q 9.15364,0 12.98827,3.46354 3.95832,3.46353 3.95832,9.15363 0,5.6901 -3.95832,9.27733 -3.83463,3.46354 -12.98827,3.46354 z"
           style="font-family:monospace;-inkscape-font-specification:'monospace Bold';fill:#6600ff"
           id="path17026" />
        <path
           d="m 287.82164,314.82864 q -3.33984,3.95833 -5.4427,5.07161 -1.97916,1.11328 -4.94791,1.11328 -5.81379,0 -9.40103,-3.83463 -3.46354,-3.95833 -3.46354,-12.98827 v -17.07029 q 0,-9.15363 3.46354,-12.98826 3.58724,-3.95833 9.40103,-3.95833 4.45312,0 7.42186,2.35026 3.09245,2.35026 4.70052,7.91666 1.60807,5.4427 3.33984,7.42186 3.58723,3.83463 12.74087,7.79296 9.15363,3.95833 20.03903,3.95833 16.94659,0 27.832,-7.91666 6.92707,-4.82421 6.92707,-11.87498 0,-4.70052 -3.33984,-8.78254 -3.33984,-4.20573 -10.8854,-6.92708 -4.94791,-1.85546 -22.1419,-5.0716 -20.78122,-3.83463 -31.41923,-9.27734 -10.638,-5.4427 -16.82289,-15.33852 -6.18489,-9.89582 -6.18489,-21.39971 0,-18.18357 15.21482,-31.79032 15.21483,-13.73045 39.58328,-13.73045 9.77213,0 18.05988,2.22656 8.41144,2.10286 15.21482,6.55598 4.94791,-4.82421 9.89582,-4.82421 5.5664,0 9.02994,3.95833 3.58723,3.83463 3.58723,12.86456 v 19.04946 q 0,9.15363 -3.58723,13.11196 -3.46354,3.83463 -9.02994,3.83463 -4.70052,0 -8.16405,-2.84505 -2.72135,-2.10286 -4.08203,-8.41145 -1.36067,-6.30858 -3.46354,-9.02993 -3.58723,-4.70052 -10.7617,-7.91666 -7.17447,-3.21614 -16.5755,-3.21614 -13.73045,0 -21.7708,6.43228 -7.91666,6.30859 -7.91666,13.23566 0,4.70052 3.21614,9.15363 3.33984,4.32943 9.64843,6.80338 4.20572,1.73177 23.62627,5.5664 19.54424,3.83463 29.93485,8.41145 10.51431,4.57681 17.44139,14.34894 6.92707,9.77212 6.92707,23.25517 0,18.80206 -13.23566,30.05856 -17.56508,14.84373 -44.77858,14.84373 -10.51431,0 -20.53383,-2.59766 -9.89582,-2.47395 -19.29685,-7.54556 z"
           style="font-family:monospace;-inkscape-font-specification:'monospace Bold';fill:#6600ff"
           id="path17023" />
      </g>
    </g>
  </g>
</svg>
